HIERARCHY
ROOT Hips
{
	OFFSET 0.00000 0.00000 0.00000
	CHANNELS 6 Xposition Yposition Zposition Zrotation Yrotation Xrotation 
	JOINT LHipJoint
	{
		OFFSET 0 0 0
		CHANNELS 3 Zrotation Yrotation Xrotation
		JOINT LeftUpLeg
		{
			OFFSET 1.62964 -1.40469 0.78906
			CHANNELS 3 Zrotation Yrotation Xrotation
			JOINT LeftLeg
			{
				OFFSET 2.29640 -6.30932 0.00000
				CHANNELS 3 Zrotation Yrotation Xrotation
				JOINT LeftFoot
				{
					OFFSET 2.29451 -6.30412 0.00000
					CHANNELS 3 Zrotation Yrotation Xrotation
					JOINT LeftToeBase
					{
						OFFSET 0.03611 -0.09921 1.56387
						CHANNELS 3 Zrotation Yrotation Xrotation
						End Site
						{
							OFFSET 0.00000 -0.00000 0.80291
						}
					}
				}
			}
		}
	}
	JOINT RHipJoint
	{
		OFFSET 0 0 0
		CHANNELS 3 Zrotation Yrotation Xrotation
		JOINT RightUpLeg
		{
			OFFSET -1.73712 -1.40469 0.78906
			CHANNELS 3 Zrotation Yrotation Xrotation
			JOINT RightLeg
			{
				OFFSET -2.28137 -6.26801 0.00000
				CHANNELS 3 Zrotation Yrotation Xrotation
				JOINT RightFoot
				{
					OFFSET -2.28681 -6.28298 0.00000
					CHANNELS 3 Zrotation Yrotation Xrotation
					JOINT RightToeBase
					{
						OFFSET -0.15927 -0.43759 1.61103
						CHANNELS 3 Zrotation Yrotation Xrotation
						End Site
						{
							OFFSET -0.00000 -0.00000 0.84630
						}
					}
				}
			}
		}
	}
	JOINT LowerBack
	{
		OFFSET 0 0 0
		CHANNELS 3 Zrotation Yrotation Xrotation
		JOINT Spine
		{
			OFFSET -0.04227 2.04338 -0.00225
			CHANNELS 3 Zrotation Yrotation Xrotation
			JOINT Spine1
			{
				OFFSET -0.02148 2.04482 -0.04273
				CHANNELS 3 Zrotation Yrotation Xrotation
				JOINT Neck
				{
					OFFSET 0 0 0
					CHANNELS 3 Zrotation Yrotation Xrotation
					JOINT Neck1
					{
						OFFSET 0.09180 1.44629 0.19359
						CHANNELS 3 Zrotation Yrotation Xrotation
						JOINT Head
						{
							OFFSET 0.00887 1.40645 0.14750
							CHANNELS 3 Zrotation Yrotation Xrotation
							End Site
							{
								OFFSET -0.00669 1.50671 0.03707
							}
						}
					}
				}
				JOINT LeftShoulder
				{
					OFFSET 0 0 0
					CHANNELS 3 Zrotation Yrotation Xrotation
					JOINT LeftArm
					{
						OFFSET 2.17674 1.86763 -0.06520
						CHANNELS 3 Zrotation Yrotation Xrotation
						JOINT LeftForeArm
						{
							OFFSET 4.65776 -0.00000 0.00000
							CHANNELS 3 Zrotation Yrotation Xrotation
							JOINT LeftHand
							{
								OFFSET 3.55539 -0.00000 0.00000
								CHANNELS 3 Zrotation Yrotation Xrotation
								JOINT LeftFingerBase
								{
									OFFSET 0 0 0
									CHANNELS 3 Zrotation Yrotation Xrotation
									JOINT LeftHandIndex1
									{
										OFFSET 0.70726 -0.00000 0.00000
										CHANNELS 3 Zrotation Yrotation Xrotation
										End Site
										{
											OFFSET 0.57022 -0.00000 0.00000
										}
									}
								}
								JOINT LThumb
								{
									OFFSET 0 0 0
									CHANNELS 3 Zrotation Yrotation Xrotation
									End Site
									{
										OFFSET 0.57892 -0.00000 0.57892
									}
								}
							}
						}
					}
				}
				JOINT RightShoulder
				{
					OFFSET 0 0 0
					CHANNELS 3 Zrotation Yrotation Xrotation
					JOINT RightArm
					{
						OFFSET -2.80694 1.55459 -0.32496
						CHANNELS 3 Zrotation Yrotation Xrotation
						JOINT RightForeArm
						{
							OFFSET -4.71925 -0.00000 -0.00000
							CHANNELS 3 Zrotation Yrotation Xrotation
							JOINT RightHand
							{
								OFFSET -3.56990 -0.00000 0.00000
								CHANNELS 3 Zrotation Yrotation Xrotation
								JOINT RightFingerBase
								{
									OFFSET 0 0 0
									CHANNELS 3 Zrotation Yrotation Xrotation
									JOINT RightHandIndex1
									{
										OFFSET -0.50776 -0.00000 0.00000
										CHANNELS 3 Zrotation Yrotation Xrotation
										End Site
										{
											OFFSET -0.40937 -0.00000 0.00000
										}
									}
								}
								JOINT RThumb
								{
									OFFSET 0 0 0
									CHANNELS 3 Zrotation Yrotation Xrotation
									End Site
									{
										OFFSET -0.41562 -0.00000 0.41562
									}
								}
							}
						}
					}
				}
			}
		}
	}
}
MOTION
Frames: 14
Frame Time: .0083333
8.5765 15.1336 13.3515 178.6980 2.3761 -153.6760 0.0000 0.0000 0.0000 7.0647 -6.6320 -65.2955 7.0716 15.3919 49.1444 0.1687 0.9141 -8.1469 7.5577 -15.7841 -50.9536 0.0000 0.0000 0.0000 -13.2513 13.4488 -1.7352 -4.7858 -13.1384 39.8888 -2.6758 15.6081 -29.8644 -7.6218 15.8339 -51.1887 0.1260 -1.1505 -13.3085 2.6823 -1.7821 2.9777 2.4469 -0.9219 10.8254 0.9505 3.5222 -2.3998 -1.5367 5.1880 10.7577 -0.4465 2.6628 4.0060 0.0000 -0.0000 0.0000 -56.9957 6.1562 22.3708 16.6446 -26.3869 -3.9281 -0.0000 0.0000 -2.3891 22.1953 -12.9666 -5.2307 -7.1250 0.0000 -0.0000 -3.5255 16.0323 2.4194 0.0000 -0.0000 0.0000 74.5167 -10.2996 12.8322 -51.5104 53.5868 -27.3850 0.0000 -0.0000 -7.8394 -10.9893 -49.6313 8.4158 7.1250 -0.0000 -0.0000 55.7323 -74.0090 -41.1515
8.4588 15.1143 13.2807 179.3560 2.0665 -153.3090 0.0000 0.0000 0.0000 7.4181 -6.5231 -66.3801 7.4244 15.6791 50.4619 0.1909 0.5300 -8.4628 7.6222 -15.8342 -51.1901 0.0000 0.0000 0.0000 -12.7043 14.2163 -1.5507 -4.7394 -13.0842 39.6845 -2.3621 16.2195 -28.2574 -7.3736 15.6386 -50.2734 0.5824 -0.9724 -12.7435 2.5838 -1.6028 3.2131 2.1269 -0.8024 10.7291 0.7046 3.3678 -2.8065 -1.0784 4.9097 10.5373 -0.2595 2.5224 3.9799 -0.0000 0.0000 0.0000 -55.8967 4.3751 23.2889 16.8759 -26.6939 -4.0314 -0.0000 0.0000 -2.8862 22.5640 -12.7075 -5.2226 -7.1250 0.0000 -0.0000 -3.2588 16.2719 2.2188 -0.0000 0.0000 0.0000 75.3710 -10.5874 12.5621 -51.5336 53.5956 -27.4038 0.0000 -0.0000 -7.2935 -11.1437 -48.9888 8.4546 7.1250 -0.0000 -0.0000 53.6537 -73.7427 -39.1487
8.3437 15.0941 13.2128 180.0630 1.9283 -152.7430 0.0000 0.0000 0.0000 7.8347 -6.2300 -67.5843 7.7634 15.9424 51.7059 0.2145 0.2203 -8.8296 7.7990 -15.9694 -51.8355 0.0000 0.0000 0.0000 -12.3412 14.9867 -1.7954 -4.7102 -13.0498 39.5551 -1.9897 17.1578 -26.3531 -7.0003 15.3321 -48.8754 0.8964 -0.7843 -12.5091 2.5674 -1.3928 3.3047 1.9793 -0.6791 10.6765 0.5685 3.2443 -2.7668 -0.8397 4.7216 10.4244 -0.1678 2.4337 3.9184 -0.0000 0.0000 0.0000 -55.0592 2.9167 24.0147 17.1784 -27.0923 -4.1682 -0.0000 0.0000 -3.3450 22.9666 -12.6087 -5.2853 -7.1250 0.0000 -0.0000 -2.9755 16.3367 2.0212 -0.0000 0.0000 0.0000 76.0051 -11.0762 12.5686 -51.4338 53.5577 -27.3234 0.0000 -0.0000 -6.7453 -11.2273 -47.5916 8.3381 7.1250 -0.0000 -0.0000 49.5864 -73.0029 -35.1224
8.2337 15.0744 13.1524 180.7740 1.7807 -152.0070 0.0000 0.0000 0.0000 8.3274 -5.9101 -68.9443 8.1097 16.1993 52.9568 0.2470 -0.1801 -9.3242 7.9025 -16.0471 -52.2108 0.0000 0.0000 0.0000 -12.0285 15.7000 -2.1787 -4.6430 -12.9701 39.2568 -1.6963 17.4270 -24.6985 -6.8860 15.2352 -48.4420 1.0873 -0.5959 -12.4295 2.5961 -1.1684 3.3905 1.9525 -0.5582 10.7149 0.4729 3.0884 -2.7950 -0.6859 4.4850 10.2142 -0.1131 2.3154 3.8400 0.0000 0.0000 0.0000 -54.3778 1.4383 24.6894 17.5068 -27.5210 -4.3189 -0.0000 0.0000 -3.9952 23.5246 -12.6694 -5.4539 -7.1250 0.0000 -0.0000 -2.5926 16.2132 1.7674 0.0000 0.0000 0.0000 76.6221 -11.5261 12.5776 -51.6186 53.6278 -27.4722 0.0000 -0.0000 -6.2979 -10.9654 -46.8932 8.0514 7.1250 -0.0000 -0.0000 47.9639 -72.4928 -33.3582
8.1237 15.0572 13.0888 181.2620 1.6040 -151.4510 0.0000 0.0000 0.0000 8.5236 -5.7717 -70.0094 8.4165 16.4172 54.0493 0.2854 -0.6954 -9.8690 7.9297 -16.0673 -52.3090 0.0000 0.0000 0.0000 -11.8938 16.2306 -2.2794 -4.5504 -12.8589 38.8426 -1.4501 17.0560 -23.0763 -6.8284 15.1856 -48.2222 1.0491 -0.4839 -12.1027 2.5931 -1.0022 3.5151 2.0079 -0.4800 10.6561 0.4493 2.8871 -3.0452 -0.4952 4.1759 10.0735 -0.0568 2.1628 3.8310 0.0000 0.0000 0.0000 -53.7501 0.0165 25.3302 17.8395 -27.9512 -4.4738 -0.0000 0.0000 -4.7864 23.9438 -12.9388 -5.6781 -7.1250 0.0000 -0.0000 -2.3181 15.8771 1.5968 0.0000 0.0000 0.0000 77.1098 -11.8981 12.6496 -51.6731 53.6484 -27.5160 0.0000 -0.0000 -6.0013 -10.2110 -46.2282 7.4108 7.1250 -0.0000 -0.0000 46.9859 -71.8139 -31.9637
8.0111 15.0408 13.0159 181.5260 1.4861 -151.1150 0.0000 0.0000 0.0000 8.3886 -5.8046 -70.6160 8.6269 16.5616 54.7908 0.3222 -1.1990 -10.3685 7.7313 -15.9180 -51.5890 0.0000 0.0000 0.0000 -12.0143 16.5189 -2.0132 -4.4038 -12.6791 38.1789 -1.1207 16.9025 -20.8692 -6.4076 14.8120 -46.5963 0.8213 -0.4403 -11.8024 2.5369 -0.8983 3.7924 2.1012 -0.4434 10.7866 0.4428 2.7947 -3.3277 -0.3257 4.0008 9.7559 -0.0067 2.0718 3.7684 0.0000 -0.0000 0.0000 -53.2556 -1.3694 25.4569 18.2373 -28.4600 -4.6618 -0.0000 0.0000 -4.8033 24.1663 -12.9146 -5.7269 -7.1250 0.0000 -0.0000 -2.1633 15.8788 1.4899 0.0000 -0.0000 0.0000 77.4615 -11.9913 12.8742 -51.6121 53.6253 -27.4669 0.0000 -0.0000 -5.8939 -9.7730 -46.0876 7.0734 7.1250 -0.0000 -0.0000 47.0521 -71.5720 -31.7866
7.9019 15.0214 12.9450 181.7710 1.5550 -150.6000 0.0000 0.0000 0.0000 8.2078 -5.6866 -71.2828 8.7778 16.6626 55.3184 0.3565 -1.6279 -10.8289 7.2451 -15.5349 -49.7955 0.0000 0.0000 0.0000 -12.3802 16.7450 -2.0004 -4.2302 -12.4605 37.3813 -0.8697 16.8242 -19.0816 -6.3745 14.7817 -46.4667 0.4044 -0.3800 -11.8909 2.5001 -0.7536 3.9484 2.3306 -0.4038 11.0143 0.4286 2.7078 -3.1535 -0.2097 3.8630 9.4914 0.0215 2.0058 3.6375 -0.0000 -0.0000 0.0000 -53.0094 -2.4549 25.4273 18.7029 -29.0479 -4.8858 -0.0000 0.0000 -4.5081 24.3483 -12.5557 -5.6184 -7.1250 0.0000 -0.0000 -2.0166 16.2484 1.3726 -0.0000 -0.0000 0.0000 77.7055 -12.2534 13.2464 -51.6867 53.6535 -27.5270 0.0000 -0.0000 -5.9860 -9.7783 -46.2808 7.1000 7.1250 -0.0000 -0.0000 47.5130 -71.6947 -32.2547
7.7965 15.0081 12.8770 182.1510 1.6998 -149.9920 0.0000 0.0000 0.0000 8.1582 -5.3906 -72.0336 8.9346 16.7655 55.8637 0.3980 -1.9837 -11.3945 6.8611 -15.2138 -48.3471 0.0000 0.0000 0.0000 -12.6891 17.0798 -2.3028 -4.0810 -12.2674 36.6845 -0.7246 16.6329 -17.9290 -6.7699 15.1350 -47.9985 0.0224 -0.2530 -11.9886 2.4952 -0.5247 3.9110 2.5903 -0.3227 11.0255 0.6168 2.5766 -2.6883 -0.2849 3.7064 9.5529 -0.0489 1.9415 3.5743 0.0000 0.0000 0.0000 -52.7853 -3.2398 25.8356 19.2333 -29.7075 -5.1459 -0.0000 0.0000 -4.8447 24.4731 -12.1737 -5.4826 -7.1250 0.0000 -0.0000 -1.9079 16.6503 1.2820 0.0000 0.0000 0.0000 77.9919 -12.8176 13.5749 -51.8136 53.7013 -27.6292 0.0000 -0.0000 -6.1428 -9.9732 -46.2789 7.2427 7.1250 -0.0000 -0.0000 47.3287 -71.7619 -32.1772
7.6964 15.0120 12.8231 182.5830 1.6108 -149.4560 0.0000 0.0000 0.0000 8.2625 -5.2563 -72.7237 9.0840 16.8615 56.3802 0.4348 -2.3092 -11.8736 6.6067 -14.9915 -47.3706 0.0000 0.0000 0.0000 -12.7151 17.4407 -2.6692 -3.9934 -12.1517 36.2707 -0.6220 16.3476 -17.0108 -7.1428 15.4510 -49.4125 -0.1725 -0.3251 -11.5345 2.6287 -0.5874 4.2574 2.8370 -0.3684 11.1513 0.0835 2.7897 -3.5512 -0.0759 3.9274 8.8411 0.1260 2.0124 3.4762 -0.0000 -0.0000 0.0000 -52.7056 -4.6792 25.5070 19.5806 -30.1337 -5.3192 -0.0000 0.0000 -5.3507 24.5456 -11.9535 -5.4034 -7.1250 0.0000 -0.0000 -1.8450 16.8823 1.2303 -0.0000 -0.0000 0.0000 77.9232 -12.0688 14.1022 -51.5878 53.6161 -27.4473 0.0000 -0.0000 -6.2499 -10.1684 -46.0033 7.3521 7.1250 -0.0000 -0.0000 46.4821 -71.6571 -31.4329
7.5971 15.0178 12.7660 182.9930 1.5680 -148.9620 0.0000 0.0000 0.0000 8.3418 -5.1607 -73.2623 9.2005 16.9350 56.7809 0.4629 -2.4761 -12.2382 6.4594 -14.8592 -46.7987 0.0000 0.0000 0.0000 -12.7558 17.7780 -2.9544 -3.9017 -12.0284 35.8324 -0.3768 16.1761 -14.9048 -6.8644 15.2166 -48.3595 -0.4711 -0.3386 -11.3030 2.6896 -0.5611 4.1966 3.0749 -0.3775 10.9483 -0.0650 2.9308 -3.1604 0.1482 4.1146 8.7329 0.2229 2.1130 3.3548 -0.0000 -0.0000 0.0000 -52.4183 -5.2776 26.1267 19.9347 -30.5636 -5.4981 -0.0000 0.0000 -5.8313 24.6709 -11.9908 -5.4512 -7.1250 0.0000 -0.0000 -1.7600 16.8285 1.1756 -0.0000 -0.0000 0.0000 78.0183 -12.3655 14.6277 -51.4772 53.5742 -27.3583 0.0000 -0.0000 -6.2788 -10.2793 -46.1436 7.4505 7.1250 -0.0000 -0.0000 46.7170 -71.7847 -31.7309
7.4977 15.0193 12.6966 183.3580 1.6513 -148.4940 0.0000 0.0000 0.0000 8.2911 -5.0057 -73.7520 9.3214 17.0101 57.1951 0.4912 -2.4760 -12.6188 6.5827 -14.9701 -47.2777 0.0000 0.0000 0.0000 -12.9290 18.0364 -3.1015 -3.7492 -11.8189 35.0944 0.0924 15.9972 -10.2497 -4.9598 13.3384 -40.6488 -0.7952 -0.3374 -11.0852 2.7058 -0.5102 4.1628 3.2838 -0.3751 10.7819 -0.1262 2.9776 -3.0286 0.3007 4.1741 8.7360 0.2825 2.1486 3.3254 -0.0000 -0.0000 0.0000 -52.1381 -5.7385 26.6875 20.3815 -31.0992 -5.7271 -0.0000 0.0000 -6.2201 24.7464 -11.6983 -5.3392 -7.1250 0.0000 -0.0000 -1.6907 17.1396 1.1179 -0.0000 -0.0000 0.0000 78.1615 -12.4229 15.0819 -51.1021 53.4304 -27.0568 0.0000 -0.0000 -6.2885 -10.4442 -46.2038 7.5788 7.1250 -0.0000 -0.0000 46.7103 -71.8807 -31.8154
7.4041 15.0321 12.6397 183.6110 1.4380 -148.0120 0.0000 0.0000 0.0000 8.2625 -5.1519 -74.4655 9.4980 17.1177 57.7969 0.5214 -2.5535 -13.0035 6.7078 -15.0808 -47.7603 0.0000 0.0000 0.0000 -12.9861 18.0611 -3.2143 -3.6055 -11.6161 34.3870 0.1015 15.0951 -9.4416 -5.4290 13.8512 -42.6446 -1.0986 -0.3853 -10.6636 2.6929 -0.5283 4.0599 3.4316 -0.3999 10.4210 -0.0178 2.8513 -2.9831 0.4981 3.9902 8.8260 0.3214 2.0720 3.3461 0.0000 0.0000 0.0000 -51.7839 -6.1707 27.3271 20.8809 -31.6890 -5.9872 -0.0000 0.0000 -6.3805 24.6096 -10.9880 -4.9895 -7.1250 0.0000 -0.0000 -1.7481 17.9279 1.1256 0.0000 0.0000 0.0000 78.5787 -12.5006 15.2442 -50.7992 53.3128 -26.8137 0.0000 -0.0000 -6.2830 -10.5630 -45.7572 7.6091 7.1250 -0.0000 -0.0000 45.5246 -71.6376 -30.6899
7.3051 15.0396 12.5725 184.1490 1.4147 -147.4120 0.0000 0.0000 0.0000 8.4972 -5.0231 -75.2072 9.6773 17.2243 58.4041 0.5615 -2.5315 -13.5146 6.6498 -15.0298 -47.5371 0.0000 0.0000 0.0000 -12.9852 18.2814 -3.6444 -3.4953 -11.4567 33.8360 0.1675 14.3352 -7.9815 -5.5045 13.9304 -42.9593 -1.0620 -0.2850 -10.7939 2.6386 -0.3977 3.9708 3.3767 -0.3333 10.3887 0.1002 2.7008 -2.6872 0.7823 3.7729 8.8549 0.3799 1.9854 3.2965 -0.0000 -0.0000 0.0000 -51.4130 -6.5439 28.0958 21.3283 -32.2096 -6.2240 -0.0000 0.0000 -6.4724 24.6796 -11.1162 -5.0629 -7.1250 0.0000 -0.0000 -1.7056 17.7814 1.1038 -0.0000 -0.0000 0.0000 79.1041 -12.7314 15.2786 -50.7611 53.2979 -26.7832 0.0000 -0.0000 -6.1978 -10.6251 -45.7121 7.6485 7.1250 -0.0000 -0.0000 45.3596 -71.6303 -30.5588
7.2088 15.0508 12.5116 184.6910 1.4044 -146.7160 0.0000 0.0000 0.0000 8.7144 -4.8291 -75.9937 9.8381 17.3178 58.9458 0.5993 -2.7147 -13.9493 6.3579 -14.7664 -46.4016 0.0000 0.0000 0.0000 -13.0371 18.5026 -4.3170 -3.4155 -11.3391 33.4323 0.2494 13.5874 -6.0794 -5.2878 13.7007 -42.0515 -1.0097 -0.2940 -10.8853 2.6555 -0.4178 4.0680 3.3647 -0.3420 10.5523 -0.1367 2.6594 -3.0623 1.0995 3.6829 8.6635 0.5243 1.9372 3.2912 0.0000 -0.0000 0.0000 -51.1965 -7.1103 28.2796 21.7217 -32.6610 -6.4350 -0.0000 0.0000 -6.7978 24.9830 -11.8286 -5.4559 -7.1250 0.0000 -0.0000 -1.5333 16.9727 1.0193 0.0000 -0.0000 0.0000 79.2679 -12.1918 15.6320 -50.5262 53.2055 -26.5949 0.0000 -0.0000 -6.2023 -10.6092 -46.2045 7.7000 7.1250 -0.0000 -0.0000 46.5584 -71.9394 -31.7541
